#N canvas 387 168 699 444 10;
#X declare -lib mrpeach;
#N canvas 67 149 358 320 alpha 1;
#X obj 22 39 inlet;
#X obj 22 91 unpack f f f f;
#X msg 233 91 0;
#X msg 262 91 100;
#X msg 126 91 0;
#X obj 22 132 wide_map;
#X obj 92 132 wide_map;
#X obj 162 132 wide_map;
#X obj 232 132 wide_map;
#X obj 126 62 loadbang;
#X obj 22 153 moses 100;
#X obj 92 153 moses 100;
#X obj 162 153 moses 100;
#X obj 232 153 moses 100;
#X obj 73 178 counter;
#X obj 143 178 counter;
#X obj 213 178 counter;
#X obj 283 178 counter;
#X obj 73 220 % 40;
#X obj 143 220 % 40;
#X obj 213 220 % 40;
#X obj 283 220 % 40;
#X obj 73 243 moses 39;
#X obj 143 243 moses 39;
#X obj 213 243 moses 39;
#X obj 283 243 moses 39;
#X obj 194 279 outlet;
#X floatatom 73 200 5 0 0 0 - - -;
#X floatatom 143 200 5 0 0 0 - - -;
#X floatatom 213 200 5 0 0 0 - - -;
#X floatatom 283 200 5 0 0 0 - - -;
#X obj 190 62 r alpha_1;
#X obj 22 112 bm_on;
#X floatatom 157 92 5 0 0 0 - - -;
#X floatatom 193 92 5 0 0 0 - - -;
#X obj 250 62 r alpha_2;
#X connect 0 0 1 0;
#X connect 1 0 32 0;
#X connect 1 1 32 1;
#X connect 1 2 32 2;
#X connect 1 3 32 3;
#X connect 2 0 8 3;
#X connect 2 0 7 3;
#X connect 2 0 6 3;
#X connect 2 0 5 3;
#X connect 3 0 8 4;
#X connect 3 0 7 4;
#X connect 3 0 6 4;
#X connect 3 0 5 4;
#X connect 4 0 5 1;
#X connect 4 0 6 1;
#X connect 4 0 7 1;
#X connect 4 0 8 1;
#X connect 5 0 10 0;
#X connect 6 0 11 0;
#X connect 7 0 12 0;
#X connect 8 0 13 0;
#X connect 9 0 4 0;
#X connect 9 0 2 0;
#X connect 9 0 3 0;
#X connect 9 0 33 0;
#X connect 9 0 34 0;
#X connect 10 1 14 0;
#X connect 11 1 15 0;
#X connect 12 1 16 0;
#X connect 13 1 17 0;
#X connect 14 0 27 0;
#X connect 15 0 28 0;
#X connect 16 0 29 0;
#X connect 17 0 30 0;
#X connect 18 0 22 0;
#X connect 19 0 23 0;
#X connect 20 0 24 0;
#X connect 21 0 25 0;
#X connect 22 1 26 0;
#X connect 23 1 26 0;
#X connect 24 1 26 0;
#X connect 25 1 26 0;
#X connect 27 0 18 0;
#X connect 28 0 19 0;
#X connect 29 0 20 0;
#X connect 30 0 21 0;
#X connect 31 0 33 0;
#X connect 32 0 5 0;
#X connect 32 1 6 0;
#X connect 32 2 7 0;
#X connect 32 3 8 0;
#X connect 33 0 5 2;
#X connect 33 0 8 2;
#X connect 34 0 6 2;
#X connect 34 0 7 2;
#X connect 35 0 34 0;
#X restore 28 109 pd alpha;
#N canvas 171 370 375 279 beta 0;
#X obj 32 27 inlet;
#X obj 32 47 unpack f f f f;
#X msg 243 47 0;
#X msg 272 47 100;
#X msg 136 47 0;
#X obj 32 91 wide_map;
#X obj 102 91 wide_map;
#X obj 172 91 wide_map;
#X obj 242 91 wide_map;
#X obj 136 18 loadbang;
#X obj 32 112 moses 100;
#X obj 102 112 moses 100;
#X obj 172 112 moses 100;
#X obj 242 112 moses 100;
#X obj 83 137 counter;
#X obj 153 137 counter;
#X obj 223 137 counter;
#X obj 293 137 counter;
#X obj 83 181 % 40;
#X obj 153 181 % 40;
#X obj 223 181 % 40;
#X obj 293 181 % 40;
#X obj 83 204 moses 39;
#X obj 153 204 moses 39;
#X obj 223 204 moses 39;
#X obj 293 204 moses 39;
#X obj 204 240 outlet;
#X floatatom 83 159 5 0 0 0 - - -;
#X floatatom 153 159 5 0 0 0 - - -;
#X floatatom 223 159 5 0 0 0 - - -;
#X floatatom 293 159 5 0 0 0 - - -;
#X obj 32 67 bm_on;
#X floatatom 164 47 5 0 0 0 - - -;
#X floatatom 204 47 5 0 0 0 - - -;
#X obj 192 18 r beta_1;
#X obj 251 18 r beta_2;
#X connect 0 0 1 0;
#X connect 1 0 31 0;
#X connect 1 1 31 1;
#X connect 1 2 31 2;
#X connect 1 3 31 3;
#X connect 2 0 8 3;
#X connect 2 0 7 3;
#X connect 2 0 6 3;
#X connect 2 0 5 3;
#X connect 3 0 8 4;
#X connect 3 0 7 4;
#X connect 3 0 6 4;
#X connect 3 0 5 4;
#X connect 4 0 5 1;
#X connect 4 0 6 1;
#X connect 4 0 7 1;
#X connect 4 0 8 1;
#X connect 5 0 10 0;
#X connect 6 0 11 0;
#X connect 7 0 12 0;
#X connect 8 0 13 0;
#X connect 9 0 4 0;
#X connect 9 0 2 0;
#X connect 9 0 3 0;
#X connect 9 0 32 0;
#X connect 9 0 33 0;
#X connect 10 1 14 0;
#X connect 11 1 15 0;
#X connect 12 1 16 0;
#X connect 13 1 17 0;
#X connect 14 0 27 0;
#X connect 15 0 28 0;
#X connect 16 0 29 0;
#X connect 17 0 30 0;
#X connect 18 0 22 0;
#X connect 19 0 23 0;
#X connect 20 0 24 0;
#X connect 21 0 25 0;
#X connect 22 1 26 0;
#X connect 23 1 26 0;
#X connect 24 1 26 0;
#X connect 25 1 26 0;
#X connect 27 0 18 0;
#X connect 28 0 19 0;
#X connect 29 0 20 0;
#X connect 30 0 21 0;
#X connect 31 0 5 0;
#X connect 31 1 6 0;
#X connect 31 2 7 0;
#X connect 31 3 8 0;
#X connect 32 0 5 2;
#X connect 32 0 8 2;
#X connect 33 0 6 2;
#X connect 33 0 7 2;
#X connect 34 0 32 0;
#X connect 35 0 33 0;
#X restore 88 109 pd beta;
#N canvas 41 465 450 300 delta 1;
#X obj 23 22 inlet;
#X obj 23 47 unpack f f f f;
#X msg 234 47 0;
#X msg 263 47 100;
#X msg 127 47 0;
#X obj 23 91 wide_map;
#X obj 93 91 wide_map;
#X obj 163 91 wide_map;
#X obj 233 91 wide_map;
#X obj 127 18 loadbang;
#X obj 23 112 moses 100;
#X obj 93 112 moses 100;
#X obj 163 112 moses 100;
#X obj 233 112 moses 100;
#X obj 74 137 counter;
#X obj 144 137 counter;
#X obj 214 137 counter;
#X obj 284 137 counter;
#X obj 74 184 % 40;
#X obj 144 184 % 40;
#X obj 214 184 % 40;
#X obj 284 184 % 40;
#X obj 74 207 moses 39;
#X obj 144 207 moses 39;
#X obj 214 207 moses 39;
#X obj 284 207 moses 39;
#X obj 195 243 outlet;
#X floatatom 144 160 5 0 0 0 - - -;
#X floatatom 214 160 5 0 0 0 - - -;
#X floatatom 284 160 5 0 0 0 - - -;
#X floatatom 74 160 5 0 0 0 - - -;
#X obj 23 68 bm_on;
#X floatatom 156 48 5 0 0 0 - - -;
#X floatatom 196 48 5 0 0 0 - - -;
#X obj 186 18 r delta_1;
#X obj 246 18 r delta_2;
#X connect 0 0 1 0;
#X connect 1 0 31 0;
#X connect 1 1 31 1;
#X connect 1 2 31 2;
#X connect 1 3 31 3;
#X connect 2 0 8 3;
#X connect 2 0 7 3;
#X connect 2 0 6 3;
#X connect 2 0 5 3;
#X connect 3 0 8 4;
#X connect 3 0 7 4;
#X connect 3 0 6 4;
#X connect 3 0 5 4;
#X connect 4 0 5 1;
#X connect 4 0 6 1;
#X connect 4 0 7 1;
#X connect 4 0 8 1;
#X connect 5 0 10 0;
#X connect 6 0 11 0;
#X connect 7 0 12 0;
#X connect 8 0 13 0;
#X connect 9 0 4 0;
#X connect 9 0 2 0;
#X connect 9 0 3 0;
#X connect 10 1 14 0;
#X connect 11 1 15 0;
#X connect 12 1 16 0;
#X connect 13 1 17 0;
#X connect 14 0 30 0;
#X connect 15 0 27 0;
#X connect 16 0 28 0;
#X connect 17 0 29 0;
#X connect 18 0 22 0;
#X connect 19 0 23 0;
#X connect 20 0 24 0;
#X connect 21 0 25 0;
#X connect 22 1 26 0;
#X connect 23 1 26 0;
#X connect 24 1 26 0;
#X connect 25 1 26 0;
#X connect 27 0 19 0;
#X connect 28 0 20 0;
#X connect 29 0 21 0;
#X connect 30 0 18 0;
#X connect 31 0 5 0;
#X connect 31 1 6 0;
#X connect 31 2 7 0;
#X connect 31 3 8 0;
#X connect 32 0 5 2;
#X connect 32 0 8 2;
#X connect 33 0 6 2;
#X connect 33 0 7 2;
#X connect 34 0 32 0;
#X connect 35 0 33 0;
#X restore 148 109 pd delta;
#N canvas 31 297 450 300 gamma 0;
#X obj 30 22 inlet;
#X obj 30 47 unpack f f f f;
#X msg 251 47 0;
#X msg 280 47 100;
#X msg 134 47 0;
#X obj 30 89 wide_map;
#X obj 100 89 wide_map;
#X obj 170 89 wide_map;
#X obj 240 89 wide_map;
#X obj 134 18 loadbang;
#X obj 30 110 moses 100;
#X obj 100 110 moses 100;
#X obj 170 110 moses 100;
#X obj 240 110 moses 100;
#X obj 81 135 counter;
#X obj 151 135 counter;
#X obj 221 135 counter;
#X obj 291 135 counter;
#X obj 81 177 % 40;
#X obj 151 177 % 40;
#X obj 221 177 % 40;
#X obj 291 177 % 40;
#X obj 81 200 moses 39;
#X obj 151 200 moses 39;
#X obj 221 200 moses 39;
#X obj 291 200 moses 39;
#X obj 202 236 outlet;
#X floatatom 81 158 5 0 0 0 - - -;
#X floatatom 151 158 5 0 0 0 - - -;
#X floatatom 221 158 5 0 0 0 - - -;
#X floatatom 291 158 5 0 0 0 - - -;
#X obj 30 69 bm_on;
#X floatatom 169 48 5 0 0 0 - - -;
#X floatatom 209 48 5 0 0 0 - - -;
#X obj 189 18 r gamma_1;
#X obj 249 18 r gamma_2;
#X connect 0 0 1 0;
#X connect 1 0 31 0;
#X connect 1 1 31 1;
#X connect 1 2 31 2;
#X connect 1 3 31 3;
#X connect 2 0 8 3;
#X connect 2 0 7 3;
#X connect 2 0 6 3;
#X connect 2 0 5 3;
#X connect 3 0 8 4;
#X connect 3 0 7 4;
#X connect 3 0 6 4;
#X connect 3 0 5 4;
#X connect 4 0 5 1;
#X connect 4 0 6 1;
#X connect 4 0 7 1;
#X connect 4 0 8 1;
#X connect 5 0 10 0;
#X connect 6 0 11 0;
#X connect 7 0 12 0;
#X connect 8 0 13 0;
#X connect 9 0 4 0;
#X connect 9 0 2 0;
#X connect 9 0 3 0;
#X connect 10 1 14 0;
#X connect 11 1 15 0;
#X connect 12 1 16 0;
#X connect 13 1 17 0;
#X connect 14 0 27 0;
#X connect 15 0 28 0;
#X connect 16 0 29 0;
#X connect 17 0 30 0;
#X connect 18 0 22 0;
#X connect 19 0 23 0;
#X connect 20 0 24 0;
#X connect 21 0 25 0;
#X connect 22 1 26 0;
#X connect 23 1 26 0;
#X connect 24 1 26 0;
#X connect 25 1 26 0;
#X connect 27 0 18 0;
#X connect 28 0 19 0;
#X connect 29 0 20 0;
#X connect 30 0 21 0;
#X connect 31 0 5 0;
#X connect 31 1 6 0;
#X connect 31 2 7 0;
#X connect 31 3 8 0;
#X connect 32 0 5 2;
#X connect 32 0 8 2;
#X connect 33 0 6 2;
#X connect 33 0 7 2;
#X connect 34 0 32 0;
#X connect 35 0 33 0;
#X restore 208 109 pd gamma;
#N canvas 367 468 450 300 theta 1;
#X obj 37 34 inlet;
#X obj 37 59 unpack f f f f;
#X msg 248 59 0;
#X msg 277 59 100;
#X msg 141 59 0;
#X obj 37 101 wide_map;
#X obj 107 101 wide_map;
#X obj 177 101 wide_map;
#X obj 247 101 wide_map;
#X obj 141 30 loadbang;
#X obj 37 122 moses 100;
#X obj 107 122 moses 100;
#X obj 177 122 moses 100;
#X obj 247 122 moses 100;
#X obj 88 147 counter;
#X obj 158 147 counter;
#X obj 228 147 counter;
#X obj 298 147 counter;
#X obj 88 189 % 40;
#X obj 158 189 % 40;
#X obj 228 189 % 40;
#X obj 298 189 % 40;
#X obj 88 212 moses 39;
#X obj 158 212 moses 39;
#X obj 228 212 moses 39;
#X obj 298 212 moses 39;
#X obj 209 248 outlet;
#X floatatom 88 168 5 0 0 0 - - -;
#X floatatom 158 168 5 0 0 0 - - -;
#X floatatom 228 168 5 0 0 0 - - -;
#X floatatom 298 168 5 0 0 0 - - -;
#X obj 37 80 bm_on;
#X floatatom 172 59 5 0 0 0 - - -;
#X floatatom 212 59 5 0 0 0 - - -;
#X obj 203 30 r theta_1;
#X obj 263 30 r theta_2;
#X connect 0 0 1 0;
#X connect 1 0 31 0;
#X connect 1 1 31 1;
#X connect 1 2 31 2;
#X connect 1 3 31 3;
#X connect 2 0 8 3;
#X connect 2 0 7 3;
#X connect 2 0 6 3;
#X connect 2 0 5 3;
#X connect 3 0 8 4;
#X connect 3 0 7 4;
#X connect 3 0 6 4;
#X connect 3 0 5 4;
#X connect 4 0 5 1;
#X connect 4 0 6 1;
#X connect 4 0 7 1;
#X connect 4 0 8 1;
#X connect 5 0 10 0;
#X connect 6 0 11 0;
#X connect 7 0 12 0;
#X connect 8 0 13 0;
#X connect 9 0 4 0;
#X connect 9 0 2 0;
#X connect 9 0 3 0;
#X connect 10 1 14 0;
#X connect 11 1 15 0;
#X connect 12 1 16 0;
#X connect 13 1 17 0;
#X connect 14 0 27 0;
#X connect 15 0 28 0;
#X connect 16 0 29 0;
#X connect 17 0 30 0;
#X connect 18 0 22 0;
#X connect 19 0 23 0;
#X connect 20 0 24 0;
#X connect 21 0 25 0;
#X connect 22 1 26 0;
#X connect 23 1 26 0;
#X connect 24 1 26 0;
#X connect 25 1 26 0;
#X connect 27 0 18 0;
#X connect 28 0 19 0;
#X connect 29 0 20 0;
#X connect 30 0 21 0;
#X connect 31 0 5 0;
#X connect 31 1 6 0;
#X connect 31 2 7 0;
#X connect 31 3 8 0;
#X connect 32 0 5 2;
#X connect 32 0 8 2;
#X connect 33 0 6 2;
#X connect 33 0 7 2;
#X connect 34 0 32 0;
#X connect 35 0 33 0;
#X restore 268 109 pd theta;
#X msg 28 33 penis;
#X obj 28 59 museLab_io;
#X obj 28 133 counter;
#X floatatom 28 157 5 0 0 0 - - -;
#X obj 88 133 counter;
#X floatatom 88 157 5 0 0 0 - - -;
#X obj 148 133 counter;
#X floatatom 148 157 5 0 0 0 - - -;
#X obj 208 133 counter;
#X floatatom 208 157 5 0 0 0 - - -;
#X obj 268 133 counter;
#X floatatom 268 157 5 0 0 0 - - -;
#X msg 326 116 0;
#N canvas 595 427 450 300 alphaNote 0;
#X obj 29 126 noteout;
#X obj 29 85 t b b b;
#X msg 59 105 100;
#X obj 29 35 inlet;
#X obj 209 36 loadbang;
#X msg 209 58 seed 2391;
#X obj 129 102 random;
#X obj 129 124 ctlout;
#X msg 209 106 17;
#X text 241 127 midi channel;
#X text 240 106 CC Code;
#X text 240 83 CC value;
#X msg 209 128 3;
#X msg 88 105 3;
#X obj 92 52 bng 15 250 50 0 empty empty empty 17 7 0 10 -262144 -1
-1;
#X msg 208 82 7;
#X msg 29 105 72;
#X connect 1 0 16 0;
#X connect 1 1 2 0;
#X connect 1 2 13 0;
#X connect 2 0 0 1;
#X connect 3 0 1 0;
#X connect 3 0 14 0;
#X connect 4 0 5 0;
#X connect 4 0 8 0;
#X connect 4 0 12 0;
#X connect 4 0 15 0;
#X connect 5 0 6 0;
#X connect 6 0 7 0;
#X connect 8 0 7 1;
#X connect 12 0 7 2;
#X connect 13 0 0 2;
#X connect 14 0 6 0;
#X connect 15 0 6 1;
#X connect 16 0 0 0;
#X restore 28 269 pd alphaNote;
#N canvas 296 379 450 300 betaNote 0;
#X obj 39 136 noteout;
#X obj 39 95 t b b b;
#X msg 69 115 100;
#X obj 39 45 inlet;
#X obj 219 46 loadbang;
#X obj 139 92 random;
#X obj 139 134 ctlout;
#X msg 219 116 17;
#X text 251 137 midi channel;
#X text 250 116 CC Code;
#X text 250 93 CC value;
#X msg 219 68 seed 8202;
#X msg 219 138 4;
#X msg 98 115 4;
#X obj 82 61 bng 15 250 50 0 empty empty empty 17 7 0 10 -262144 -1
-1;
#X msg 219 94 7;
#X obj 139 113 + 8;
#X msg 39 115 72;
#X connect 1 0 17 0;
#X connect 1 1 2 0;
#X connect 1 2 13 0;
#X connect 2 0 0 1;
#X connect 3 0 1 0;
#X connect 3 0 14 0;
#X connect 4 0 11 0;
#X connect 4 0 15 0;
#X connect 4 0 7 0;
#X connect 4 0 12 0;
#X connect 5 0 16 0;
#X connect 7 0 6 1;
#X connect 11 0 5 0;
#X connect 12 0 6 2;
#X connect 13 0 0 2;
#X connect 14 0 5 0;
#X connect 15 0 5 1;
#X connect 16 0 6 0;
#X connect 17 0 0 0;
#X restore 88 245 pd betaNote;
#N canvas 582 335 450 300 deltaNote 0;
#X obj 49 146 noteout;
#X obj 49 105 t b b b;
#X msg 79 125 100;
#X obj 49 55 inlet;
#X obj 229 56 loadbang;
#X msg 229 78 seed 2391;
#X obj 149 101 random;
#X obj 149 144 ctlout;
#X msg 229 126 17;
#X text 261 147 midi channel;
#X text 260 126 CC Code;
#X text 260 103 CC value;
#X msg 229 148 5;
#X msg 108 125 5;
#X obj 103 72 bng 15 250 50 0 empty empty empty 17 7 0 10 -262144 -1
-1;
#X msg 228 104 7;
#X obj 149 123 + 16;
#X msg 49 125 72;
#X connect 1 0 17 0;
#X connect 1 1 2 0;
#X connect 1 2 13 0;
#X connect 2 0 0 1;
#X connect 3 0 1 0;
#X connect 3 0 14 0;
#X connect 4 0 5 0;
#X connect 4 0 8 0;
#X connect 4 0 12 0;
#X connect 4 0 15 0;
#X connect 5 0 6 0;
#X connect 6 0 16 0;
#X connect 8 0 7 1;
#X connect 12 0 7 2;
#X connect 13 0 0 2;
#X connect 14 0 6 0;
#X connect 15 0 6 1;
#X connect 16 0 7 0;
#X connect 17 0 0 0;
#X restore 148 223 pd deltaNote;
#N canvas 645 346 450 300 gammaNote 0;
#X obj 59 156 noteout;
#X obj 59 115 t b b b;
#X msg 89 135 100;
#X obj 59 65 inlet;
#X obj 239 66 loadbang;
#X msg 239 88 seed 2391;
#X obj 159 154 ctlout;
#X msg 239 136 17;
#X text 271 157 midi channel;
#X text 270 136 CC Code;
#X text 270 113 CC value;
#X msg 239 158 6;
#X msg 118 135 6;
#X obj 118 82 bng 15 250 50 0 empty empty empty 17 7 0 10 -262144 -1
-1;
#X obj 159 111 random;
#X msg 239 113 7;
#X obj 159 133 + 32;
#X msg 59 135 72;
#X connect 1 0 17 0;
#X connect 1 1 2 0;
#X connect 1 2 12 0;
#X connect 2 0 0 1;
#X connect 3 0 1 0;
#X connect 3 0 13 0;
#X connect 4 0 5 0;
#X connect 4 0 7 0;
#X connect 4 0 11 0;
#X connect 4 0 15 0;
#X connect 5 0 14 0;
#X connect 7 0 6 1;
#X connect 11 0 6 2;
#X connect 12 0 0 2;
#X connect 13 0 14 0;
#X connect 14 0 16 0;
#X connect 15 0 14 1;
#X connect 16 0 6 0;
#X connect 17 0 0 0;
#X restore 208 201 pd gammaNote;
#N canvas 597 248 450 300 thetaNote 0;
#X obj 69 167 noteout;
#X obj 69 126 t b b b;
#X msg 99 146 100;
#X msg 69 146 84;
#X obj 69 76 inlet;
#X obj 249 77 loadbang;
#X msg 249 99 seed 2391;
#X obj 169 165 ctlout;
#X msg 249 147 17;
#X text 281 168 midi channel;
#X text 280 147 CC Code;
#X text 280 124 CC value;
#X msg 249 169 7;
#X msg 128 146 7;
#X obj 169 116 random 31;
#X msg 248 125 31;
#X obj 118 93 bng 15 250 50 0 empty empty empty 17 7 0 10 -262144 -1
-1;
#X obj 169 141 + 32;
#X connect 1 0 3 0;
#X connect 1 1 2 0;
#X connect 1 2 13 0;
#X connect 2 0 0 1;
#X connect 3 0 0 0;
#X connect 4 0 1 0;
#X connect 4 0 16 0;
#X connect 5 0 6 0;
#X connect 5 0 8 0;
#X connect 5 0 12 0;
#X connect 5 0 15 0;
#X connect 6 0 14 0;
#X connect 8 0 7 1;
#X connect 12 0 7 2;
#X connect 13 0 0 2;
#X connect 14 0 17 0;
#X connect 15 0 14 1;
#X connect 16 0 14 0;
#X connect 17 0 7 0;
#X restore 268 179 pd thetaNote;
#N canvas 642 308 227 298 horseshoe 1;
#X floatatom 27 71 5 0 0 0 - - -;
#X floatatom 67 71 5 0 0 0 - - -;
#X floatatom 107 71 5 0 0 0 - - -;
#X floatatom 147 71 5 0 0 0 - - -;
#X obj 27 50 unpack f f f f;
#X obj 27 94 expr $f1+$f2+$f3+$f4;
#X floatatom 27 114 5 0 0 0 - - -;
#X obj 27 29 inlet;
#X obj 27 133 expr if($f1 == 4 \, 1 \, 0);
#X obj 27 153 s on;
#X connect 0 0 5 0;
#X connect 1 0 5 1;
#X connect 2 0 5 2;
#X connect 3 0 5 3;
#X connect 4 0 0 0;
#X connect 4 1 1 0;
#X connect 4 2 2 0;
#X connect 4 3 3 0;
#X connect 5 0 6 0;
#X connect 6 0 8 0;
#X connect 7 0 4 0;
#X connect 8 0 9 0;
#X restore 146 76 pd horseshoe;
#X obj 430 48 vsl 15 64 0.3 0.45 0 0 alpha_1 empty alpha_1 0 -9 0 10
-262144 -1 -1 6300 1;
#X floatatom 430 125 5 0 0 0 - - -;
#X obj 480 48 vsl 15 64 0.26 0.39 0 0 alpha_2 empty alpha_2 0 -9 0
10 -262144 -1 -1 5900 1;
#X floatatom 480 125 5 0 0 0 - - -;
#X obj 530 48 vsl 15 64 0.27 0.36 0 0 beta_1 empty beta_1 0 -9 0 10
-262144 -1 -1 4900 1;
#X floatatom 530 125 5 0 0 0 - - -;
#X obj 580 48 vsl 15 64 0.36 0.45 0 0 beta_2 empty beta_2 0 -9 0 10
-262144 -1 -1 5100 1;
#X floatatom 580 125 5 0 0 0 - - -;
#X obj 430 168 vsl 15 64 0.4 0.74 0 0 delta_1 empty delta_1 0 -9 0
10 -262144 -1 -1 3000 1;
#X floatatom 430 245 5 0 0 0 - - -;
#X obj 480 168 vsl 15 64 0.45 0.85 0 0 delta_2 empty delta_2 0 -9 0
10 -262144 -1 -1 2700 1;
#X floatatom 480 245 5 0 0 0 - - -;
#X obj 530 168 vsl 15 64 0.21 0.3 0 0 gamma_1 empty gamma_1 0 -9 0
10 -262144 -1 -1 3200 1;
#X floatatom 530 245 5 0 0 0 - - -;
#X obj 580 168 vsl 15 64 0.28 0.37 0 0 gamma_2 empty gamma_2 0 -9 0
10 -262144 -1 -1 3300 1;
#X floatatom 580 245 5 0 0 0 - - -;
#X obj 430 288 vsl 15 64 0.21 0.35 0 0 theta_1 empty theta_1 0 -9 0
10 -262144 -1 -1 1200 1;
#X floatatom 430 365 5 0 0 0 - - -;
#X obj 480 288 vsl 15 64 0.19 0.35 0 0 theta_2 empty theta_2 0 -9 0
10 -262144 -1 -1 1400 1;
#X floatatom 480 365 5 0 0 0 - - -;
#X msg 391 29 1;
#X obj 391 7 loadbang;
#X msg 391 149 1;
#X msg 391 269 1;
#X msg 295 53;
#X connect 0 0 7 0;
#X connect 1 0 9 0;
#X connect 2 0 11 0;
#X connect 3 0 13 0;
#X connect 4 0 15 0;
#X connect 5 0 6 0;
#X connect 6 0 0 0;
#X connect 6 1 1 0;
#X connect 6 2 2 0;
#X connect 6 3 3 0;
#X connect 6 4 4 0;
#X connect 6 6 23 0;
#X connect 7 0 8 0;
#X connect 8 0 18 0;
#X connect 9 0 10 0;
#X connect 10 0 19 0;
#X connect 11 0 12 0;
#X connect 12 0 20 0;
#X connect 13 0 14 0;
#X connect 14 0 21 0;
#X connect 15 0 16 0;
#X connect 16 0 22 0;
#X connect 17 0 15 3;
#X connect 17 0 13 3;
#X connect 17 0 11 3;
#X connect 17 0 9 3;
#X connect 17 0 7 3;
#X connect 24 0 25 0;
#X connect 26 0 27 0;
#X connect 28 0 29 0;
#X connect 30 0 31 0;
#X connect 32 0 33 0;
#X connect 34 0 35 0;
#X connect 36 0 37 0;
#X connect 38 0 39 0;
#X connect 40 0 41 0;
#X connect 42 0 43 0;
#X connect 44 0 24 0;
#X connect 44 0 26 0;
#X connect 44 0 28 0;
#X connect 44 0 30 0;
#X connect 44 0 46 0;
#X connect 45 0 44 0;
#X connect 46 0 32 0;
#X connect 46 0 34 0;
#X connect 46 0 36 0;
#X connect 46 0 38 0;
#X connect 46 0 47 0;
#X connect 47 0 40 0;
#X connect 47 0 42 0;
