#N canvas 523 226 682 358 10;
#X declare -lib mrpeach;
#N canvas 87 260 596 427 alpha 1;
#X obj 92 39 inlet;
#X obj 92 91 unpack f f f f;
#X msg 293 91 0;
#X msg 322 91 100;
#X msg 186 91 0;
#X obj 352 152 wide_map;
#X obj 422 152 wide_map;
#X obj 186 62 loadbang;
#X obj 250 62 r alpha_1;
#X obj 92 117 bm_on;
#X floatatom 217 92 5 0 0 0 - - -;
#X floatatom 253 92 5 0 0 0 - - -;
#X obj 310 62 r alpha_2;
#X obj 92 152 wide_map;
#X obj 92 173 moses 100;
#X obj 93 204 counter;
#X obj 93 226 moses 2;
#X obj 93 248 metro 50;
#X obj 93 269 counter;
#X obj 14 275 r density;
#X obj 93 292 moses 20;
#X obj 76 308 bng 15 250 50 0 empty empty empty 17 7 0 10 -262144 -1
-1;
#X obj 76 254 bng 15 250 50 0 empty empty empty 17 7 0 10 -262144 -1
-1;
#X obj 76 189 bng 15 250 50 0 empty empty empty 17 7 0 10 -262144 -1
-1;
#X obj 194 284 outlet;
#X obj 155 243 moses 1;
#X floatatom 169 217 5 0 0 0 - - -;
#X obj 162 152 wide_map;
#X obj 162 173 moses 100;
#X connect 0 0 1 0;
#X connect 1 0 9 0;
#X connect 1 1 9 1;
#X connect 1 2 9 2;
#X connect 1 3 9 3;
#X connect 2 0 6 3;
#X connect 2 0 5 3;
#X connect 2 0 13 3;
#X connect 2 0 27 3;
#X connect 3 0 6 4;
#X connect 3 0 5 4;
#X connect 3 0 13 4;
#X connect 3 0 27 4;
#X connect 4 0 5 1;
#X connect 4 0 6 1;
#X connect 4 0 13 1;
#X connect 4 0 27 1;
#X connect 7 0 4 0;
#X connect 7 0 2 0;
#X connect 7 0 3 0;
#X connect 7 0 10 0;
#X connect 7 0 11 0;
#X connect 8 0 10 0;
#X connect 9 0 13 0;
#X connect 9 1 5 0;
#X connect 9 2 6 0;
#X connect 9 3 27 0;
#X connect 10 0 13 2;
#X connect 10 0 27 2;
#X connect 11 0 5 2;
#X connect 11 0 6 2;
#X connect 12 0 11 0;
#X connect 13 0 14 0;
#X connect 14 1 15 0;
#X connect 15 0 16 0;
#X connect 15 0 26 0;
#X connect 16 0 17 0;
#X connect 16 0 25 0;
#X connect 17 0 18 0;
#X connect 18 0 20 0;
#X connect 19 0 20 1;
#X connect 20 1 21 0;
#X connect 21 0 22 0;
#X connect 22 0 23 0;
#X connect 22 0 18 3;
#X connect 23 0 15 3;
#X connect 25 1 24 0;
#X connect 27 0 28 0;
#X connect 28 1 15 0;
#X restore 28 109 pd alpha;
#N canvas 177 370 862 356 beta 0;
#X obj 32 27 inlet;
#X obj 32 47 unpack f f f f;
#X msg 293 60 0;
#X msg 322 60 100;
#X msg 186 60 0;
#X obj 32 131 wide_map;
#X obj 332 84 wide_map;
#X obj 402 84 wide_map;
#X obj 186 31 loadbang;
#X obj 32 67 bm_on;
#X floatatom 214 60 5 0 0 0 - - -;
#X floatatom 254 60 5 0 0 0 - - -;
#X obj 242 31 r beta_1;
#X obj 301 31 r beta_2;
#X obj 32 163 moses 100;
#X obj 33 184 counter;
#X obj 33 206 moses 2;
#X obj 33 228 metro 50;
#X obj 33 249 counter;
#X obj -46 255 r density;
#X obj 33 272 moses 20;
#X obj 16 288 bng 15 250 50 0 empty empty empty 17 7 0 10 -262144 -1
-1;
#X obj 16 234 bng 15 250 50 0 empty empty empty 17 7 0 10 -262144 -1
-1;
#X obj 16 169 bng 15 250 50 0 empty empty empty 17 7 0 10 -262144 -1
-1;
#X obj 134 254 outlet;
#X obj 95 223 moses 1;
#X floatatom 109 197 5 0 0 0 - - -;
#X obj 102 131 wide_map;
#X obj 102 163 moses 100;
#X connect 0 0 1 0;
#X connect 1 0 9 0;
#X connect 1 1 9 1;
#X connect 1 2 9 2;
#X connect 1 3 9 3;
#X connect 2 0 7 3;
#X connect 2 0 6 3;
#X connect 2 0 5 3;
#X connect 2 0 27 3;
#X connect 3 0 7 4;
#X connect 3 0 6 4;
#X connect 3 0 5 4;
#X connect 3 0 27 4;
#X connect 4 0 5 1;
#X connect 4 0 6 1;
#X connect 4 0 7 1;
#X connect 4 0 27 1;
#X connect 5 0 14 0;
#X connect 8 0 4 0;
#X connect 8 0 2 0;
#X connect 8 0 3 0;
#X connect 8 0 10 0;
#X connect 8 0 11 0;
#X connect 9 0 5 0;
#X connect 9 1 6 0;
#X connect 9 2 7 0;
#X connect 9 3 27 0;
#X connect 10 0 5 2;
#X connect 10 0 27 2;
#X connect 11 0 6 2;
#X connect 11 0 7 2;
#X connect 12 0 10 0;
#X connect 13 0 11 0;
#X connect 14 1 15 0;
#X connect 15 0 16 0;
#X connect 15 0 26 0;
#X connect 16 0 17 0;
#X connect 16 0 25 0;
#X connect 17 0 18 0;
#X connect 18 0 20 0;
#X connect 19 0 20 1;
#X connect 20 1 21 0;
#X connect 21 0 22 0;
#X connect 22 0 23 0;
#X connect 22 0 18 3;
#X connect 23 0 15 3;
#X connect 25 1 24 0;
#X connect 27 0 28 0;
#X connect 28 1 15 0;
#X restore 88 109 pd beta;
#N canvas 399 230 624 437 delta 0;
#X obj 23 22 inlet;
#X obj 23 47 unpack f f f f;
#X msg 234 47 0;
#X msg 263 47 100;
#X msg 127 47 0;
#X obj 23 131 wide_map;
#X obj 293 71 wide_map;
#X obj 363 71 wide_map;
#X obj 93 131 wide_map;
#X obj 127 18 loadbang;
#X obj 23 68 bm_on;
#X floatatom 156 48 5 0 0 0 - - -;
#X floatatom 196 48 5 0 0 0 - - -;
#X obj 186 18 r delta_1;
#X obj 246 18 r delta_2;
#X obj 23 153 moses 100;
#X obj 24 174 counter;
#X obj 24 196 moses 2;
#X obj 24 218 metro 50;
#X obj 24 239 counter;
#X obj -55 245 r density;
#X obj 24 262 moses 20;
#X obj 7 278 bng 15 250 50 0 empty empty empty 17 7 0 10 -262144 -1
-1;
#X obj 7 224 bng 15 250 50 0 empty empty empty 17 7 0 10 -262144 -1
-1;
#X obj 7 159 bng 15 250 50 0 empty empty empty 17 7 0 10 -262144 -1
-1;
#X obj 150 304 outlet;
#X obj 86 213 moses 1;
#X obj 93 153 moses 100;
#X floatatom 100 187 5 0 0 0 - - -;
#X connect 0 0 1 0;
#X connect 1 0 10 0;
#X connect 1 1 10 1;
#X connect 1 2 10 2;
#X connect 1 3 10 3;
#X connect 2 0 8 3;
#X connect 2 0 7 3;
#X connect 2 0 6 3;
#X connect 2 0 5 3;
#X connect 3 0 8 4;
#X connect 3 0 7 4;
#X connect 3 0 6 4;
#X connect 3 0 5 4;
#X connect 4 0 5 1;
#X connect 4 0 6 1;
#X connect 4 0 7 1;
#X connect 4 0 8 1;
#X connect 5 0 15 0;
#X connect 8 0 27 0;
#X connect 9 0 4 0;
#X connect 9 0 2 0;
#X connect 9 0 3 0;
#X connect 10 0 5 0;
#X connect 10 1 6 0;
#X connect 10 2 7 0;
#X connect 10 3 8 0;
#X connect 11 0 5 2;
#X connect 11 0 8 2;
#X connect 12 0 6 2;
#X connect 12 0 7 2;
#X connect 13 0 11 0;
#X connect 14 0 12 0;
#X connect 15 1 16 0;
#X connect 16 0 17 0;
#X connect 16 0 28 0;
#X connect 17 0 18 0;
#X connect 17 0 26 0;
#X connect 18 0 19 0;
#X connect 19 0 21 0;
#X connect 20 0 21 1;
#X connect 21 1 22 0;
#X connect 22 0 23 0;
#X connect 23 0 24 0;
#X connect 23 0 19 3;
#X connect 24 0 16 3;
#X connect 26 1 25 0;
#X connect 27 1 16 0;
#X restore 148 109 pd delta;
#N canvas 31 297 794 424 gamma 0;
#X obj 30 22 inlet;
#X obj 30 47 unpack f f f f;
#X msg 251 47 0;
#X msg 280 47 100;
#X msg 134 47 0;
#X obj 30 109 wide_map;
#X obj 350 99 wide_map;
#X obj 420 99 wide_map;
#X obj 90 109 wide_map;
#X obj 134 18 loadbang;
#X obj 30 69 bm_on;
#X floatatom 169 48 5 0 0 0 - - -;
#X floatatom 209 48 5 0 0 0 - - -;
#X obj 189 18 r gamma_1;
#X obj 249 18 r gamma_2;
#X obj 30 133 moses 100;
#X obj 31 154 counter;
#X obj 31 176 moses 2;
#X obj 31 198 metro 50;
#X obj 31 219 counter;
#X obj -48 225 r density;
#X obj 31 242 moses 20;
#X obj 14 258 bng 15 250 50 0 empty empty empty 17 7 0 10 -262144 -1
-1;
#X obj 14 204 bng 15 250 50 0 empty empty empty 17 7 0 10 -262144 -1
-1;
#X obj 14 139 bng 15 250 50 0 empty empty empty 17 7 0 10 -262144 -1
-1;
#X obj 157 284 outlet;
#X obj 93 193 moses 1;
#X obj 90 133 moses 100;
#X floatatom 107 167 5 0 0 0 - - -;
#X connect 0 0 1 0;
#X connect 1 0 10 0;
#X connect 1 1 10 1;
#X connect 1 2 10 2;
#X connect 1 3 10 3;
#X connect 2 0 8 3;
#X connect 2 0 7 3;
#X connect 2 0 6 3;
#X connect 2 0 5 3;
#X connect 3 0 8 4;
#X connect 3 0 7 4;
#X connect 3 0 6 4;
#X connect 3 0 5 4;
#X connect 4 0 5 1;
#X connect 4 0 6 1;
#X connect 4 0 7 1;
#X connect 4 0 8 1;
#X connect 5 0 15 0;
#X connect 8 0 27 0;
#X connect 9 0 4 0;
#X connect 9 0 2 0;
#X connect 9 0 3 0;
#X connect 10 0 5 0;
#X connect 10 1 6 0;
#X connect 10 2 7 0;
#X connect 10 3 8 0;
#X connect 11 0 5 2;
#X connect 11 0 8 2;
#X connect 12 0 6 2;
#X connect 12 0 7 2;
#X connect 13 0 11 0;
#X connect 14 0 12 0;
#X connect 15 1 16 0;
#X connect 16 0 17 0;
#X connect 16 0 28 0;
#X connect 17 0 18 0;
#X connect 17 0 26 0;
#X connect 18 0 19 0;
#X connect 19 0 21 0;
#X connect 20 0 21 1;
#X connect 21 1 22 0;
#X connect 22 0 23 0;
#X connect 23 0 24 0;
#X connect 23 0 19 3;
#X connect 24 0 16 3;
#X connect 26 1 25 0;
#X connect 27 1 16 0;
#X restore 208 109 pd gamma;
#N canvas 307 189 642 425 theta 0;
#X obj 37 34 inlet;
#X obj 37 59 unpack f f f f;
#X msg 248 59 0;
#X msg 277 59 100;
#X msg 141 59 0;
#X obj 37 121 wide_map;
#X obj 297 111 wide_map;
#X obj 367 111 wide_map;
#X obj 97 121 wide_map;
#X obj 141 30 loadbang;
#X obj 37 80 bm_on;
#X floatatom 172 59 5 0 0 0 - - -;
#X floatatom 212 59 5 0 0 0 - - -;
#X obj 203 30 r theta_1;
#X obj 263 30 r theta_2;
#X obj 37 143 moses 100;
#X obj 38 164 counter;
#X obj 38 186 moses 2;
#X obj 38 208 metro 50;
#X obj 38 229 counter;
#X obj -41 235 r density;
#X obj 38 252 moses 20;
#X obj 21 268 bng 15 250 50 0 empty empty empty 17 7 0 10 -262144 -1
-1;
#X obj 21 214 bng 15 250 50 0 empty empty empty 17 7 0 10 -262144 -1
-1;
#X obj 21 149 bng 15 250 50 0 empty empty empty 17 7 0 10 -262144 -1
-1;
#X obj 139 233 outlet;
#X obj 100 203 moses 1;
#X floatatom 114 177 5 0 0 0 - - -;
#X obj 97 143 moses 100;
#X connect 0 0 1 0;
#X connect 1 0 10 0;
#X connect 1 1 10 1;
#X connect 1 2 10 2;
#X connect 1 3 10 3;
#X connect 2 0 8 3;
#X connect 2 0 7 3;
#X connect 2 0 6 3;
#X connect 2 0 5 3;
#X connect 3 0 8 4;
#X connect 3 0 7 4;
#X connect 3 0 6 4;
#X connect 3 0 5 4;
#X connect 4 0 5 1;
#X connect 4 0 6 1;
#X connect 4 0 7 1;
#X connect 4 0 8 1;
#X connect 5 0 15 0;
#X connect 8 0 28 0;
#X connect 9 0 4 0;
#X connect 9 0 2 0;
#X connect 9 0 3 0;
#X connect 10 0 5 0;
#X connect 10 1 6 0;
#X connect 10 2 7 0;
#X connect 10 3 8 0;
#X connect 11 0 5 2;
#X connect 11 0 8 2;
#X connect 12 0 6 2;
#X connect 12 0 7 2;
#X connect 13 0 11 0;
#X connect 14 0 12 0;
#X connect 15 1 16 0;
#X connect 16 0 17 0;
#X connect 16 0 27 0;
#X connect 17 0 18 0;
#X connect 17 0 26 0;
#X connect 18 0 19 0;
#X connect 19 0 21 0;
#X connect 20 0 21 1;
#X connect 21 1 22 0;
#X connect 22 0 23 0;
#X connect 23 0 24 0;
#X connect 23 0 19 3;
#X connect 24 0 16 3;
#X connect 26 1 25 0;
#X connect 28 1 16 0;
#X restore 268 109 pd theta;
#X msg 28 33 penis;
#X obj 28 59 museLab_io;
#X obj 28 133 counter;
#X floatatom 28 157 5 0 0 0 - - -;
#X obj 88 133 counter;
#X floatatom 88 157 5 0 0 0 - - -;
#X obj 148 133 counter;
#X floatatom 148 157 5 0 0 0 - - -;
#X obj 208 133 counter;
#X floatatom 208 157 5 0 0 0 - - -;
#X obj 268 133 counter;
#X floatatom 268 157 5 0 0 0 - - -;
#N canvas 80 311 450 300 alphaNote 0;
#X obj 29 146 noteout;
#X obj 29 105 t b b b;
#X msg 59 125 100;
#X obj 29 35 inlet;
#X obj 202 56 loadbang;
#X msg 202 78 seed 2391;
#X obj 122 122 random;
#X obj 122 144 ctlout;
#X msg 202 126 17;
#X text 234 147 midi channel;
#X text 233 126 CC Code;
#X text 233 103 CC value;
#X msg 202 148 3;
#X msg 88 125 3;
#X obj 122 52 bng 15 250 50 0 empty empty empty 17 7 0 10 -262144 -1
-1;
#X msg 29 125 84;
#X msg 201 102 32;
#X obj 29 84 moses 2;
#X connect 1 0 15 0;
#X connect 1 1 2 0;
#X connect 1 2 13 0;
#X connect 2 0 0 1;
#X connect 3 0 14 0;
#X connect 3 0 17 0;
#X connect 4 0 5 0;
#X connect 4 0 8 0;
#X connect 4 0 12 0;
#X connect 4 0 16 0;
#X connect 5 0 6 0;
#X connect 6 0 7 0;
#X connect 8 0 7 1;
#X connect 12 0 7 2;
#X connect 13 0 0 2;
#X connect 14 0 6 0;
#X connect 15 0 0 0;
#X connect 16 0 6 1;
#X connect 17 1 1 0;
#X restore 28 269 pd alphaNote;
#N canvas 296 379 450 300 betaNote 0;
#X obj 39 156 noteout;
#X obj 39 115 t b b b;
#X msg 69 135 100;
#X obj 39 45 inlet;
#X obj 219 46 loadbang;
#X obj 139 92 random;
#X obj 139 134 ctlout;
#X msg 219 116 17;
#X text 251 137 midi channel;
#X text 250 116 CC Code;
#X text 250 93 CC value;
#X msg 219 68 seed 8202;
#X msg 219 138 4;
#X msg 98 135 4;
#X obj 82 61 bng 15 250 50 0 empty empty empty 17 7 0 10 -262144 -1
-1;
#X msg 219 94 7;
#X obj 139 113 + 8;
#X msg 39 135 84;
#X obj 39 93 moses 2;
#X connect 1 0 17 0;
#X connect 1 1 2 0;
#X connect 1 2 13 0;
#X connect 2 0 0 1;
#X connect 3 0 14 0;
#X connect 3 0 18 0;
#X connect 4 0 11 0;
#X connect 4 0 15 0;
#X connect 4 0 7 0;
#X connect 4 0 12 0;
#X connect 5 0 16 0;
#X connect 7 0 6 1;
#X connect 11 0 5 0;
#X connect 12 0 6 2;
#X connect 13 0 0 2;
#X connect 14 0 5 0;
#X connect 15 0 5 1;
#X connect 16 0 6 0;
#X connect 17 0 0 0;
#X connect 18 1 1 0;
#X restore 88 245 pd betaNote;
#N canvas 645 346 450 300 gammaNote 0;
#X obj 59 156 noteout;
#X obj 59 115 t b b b;
#X msg 89 135 100;
#X obj 59 65 inlet;
#X obj 239 66 loadbang;
#X msg 239 88 seed 2391;
#X obj 159 154 ctlout;
#X msg 239 136 17;
#X text 271 157 midi channel;
#X text 270 136 CC Code;
#X text 270 113 CC value;
#X msg 239 158 6;
#X msg 118 135 6;
#X obj 118 82 bng 15 250 50 0 empty empty empty 17 7 0 10 -262144 -1
-1;
#X obj 159 111 random;
#X msg 239 113 7;
#X obj 159 133 + 32;
#X msg 59 135 72;
#X obj 59 89 moses 2;
#X connect 1 0 17 0;
#X connect 1 1 2 0;
#X connect 1 2 12 0;
#X connect 2 0 0 1;
#X connect 3 0 13 0;
#X connect 3 0 18 0;
#X connect 4 0 5 0;
#X connect 4 0 7 0;
#X connect 4 0 11 0;
#X connect 4 0 15 0;
#X connect 5 0 14 0;
#X connect 7 0 6 1;
#X connect 11 0 6 2;
#X connect 12 0 0 2;
#X connect 13 0 14 0;
#X connect 14 0 16 0;
#X connect 15 0 14 1;
#X connect 16 0 6 0;
#X connect 17 0 0 0;
#X connect 18 1 1 0;
#X restore 208 201 pd gammaNote;
#N canvas 597 248 450 300 thetaNote 0;
#X obj 69 167 noteout;
#X obj 69 126 t b b b;
#X msg 99 146 100;
#X msg 69 146 84;
#X obj 69 76 inlet;
#X obj 249 77 loadbang;
#X msg 249 99 seed 2391;
#X obj 169 165 ctlout;
#X msg 249 147 17;
#X text 281 168 midi channel;
#X text 280 147 CC Code;
#X text 280 124 CC value;
#X msg 249 169 7;
#X msg 128 146 7;
#X obj 169 116 random 31;
#X msg 248 125 31;
#X obj 118 93 bng 15 250 50 0 empty empty empty 17 7 0 10 -262144 -1
-1;
#X obj 169 141 + 32;
#X obj 69 105 moses 2;
#X connect 1 0 3 0;
#X connect 1 1 2 0;
#X connect 1 2 13 0;
#X connect 2 0 0 1;
#X connect 3 0 0 0;
#X connect 4 0 16 0;
#X connect 4 0 18 0;
#X connect 5 0 6 0;
#X connect 5 0 8 0;
#X connect 5 0 12 0;
#X connect 5 0 15 0;
#X connect 6 0 14 0;
#X connect 8 0 7 1;
#X connect 12 0 7 2;
#X connect 13 0 0 2;
#X connect 14 0 17 0;
#X connect 15 0 14 1;
#X connect 16 0 14 0;
#X connect 17 0 7 0;
#X connect 18 1 1 0;
#X restore 268 179 pd thetaNote;
#N canvas 642 308 227 298 horseshoe 1;
#X floatatom 27 71 5 0 0 0 - - -;
#X floatatom 67 71 5 0 0 0 - - -;
#X floatatom 107 71 5 0 0 0 - - -;
#X floatatom 147 71 5 0 0 0 - - -;
#X obj 27 50 unpack f f f f;
#X obj 27 94 expr $f1+$f2+$f3+$f4;
#X floatatom 27 114 5 0 0 0 - - -;
#X obj 27 29 inlet;
#X obj 27 153 s on;
#X obj 27 134 expr if($f1 <= 8 \, 1 \, 0);
#X connect 0 0 5 0;
#X connect 1 0 5 1;
#X connect 2 0 5 2;
#X connect 3 0 5 3;
#X connect 4 0 0 0;
#X connect 4 1 1 0;
#X connect 4 2 2 0;
#X connect 4 3 3 0;
#X connect 5 0 6 0;
#X connect 6 0 9 0;
#X connect 7 0 4 0;
#X connect 9 0 8 0;
#X restore 182 76 pd horseshoe;
#X obj 430 48 vsl 15 64 0.3 0.45 0 0 alpha_1 empty alpha_1 0 -9 0 10
-262144 -1 -1 5300 1;
#X floatatom 430 125 5 0 0 0 - - -;
#X obj 480 48 vsl 15 64 0.27 0.36 0 0 beta_1 empty beta_1 0 -9 0 10
-262144 -1 -1 3800 1;
#X floatatom 480 125 5 0 0 0 - - -;
#X obj 520 48 vsl 15 64 0.4 0.74 0 0 delta_1 empty delta_1 0 -9 0 10
-262144 -1 -1 300 1;
#X floatatom 520 125 5 0 0 0 - - -;
#X obj 570 48 vsl 15 64 0.15 0.3 0 0 gamma_1 empty gamma_1 0 -9 0 10
-262144 -1 -1 4600 1;
#X floatatom 570 125 5 0 0 0 - - -;
#X obj 620 48 vsl 15 64 0.21 0.35 0 0 theta_1 empty theta_1 0 -9 0
10 -262144 -1 -1 5800 1;
#X floatatom 620 125 5 0 0 0 - - -;
#X msg 391 29 1;
#X obj 391 7 loadbang;
#X obj 430 166 vsl 15 128 1000 2 0 0 density empty density 0 -9 0 10
-262144 -1 -1 12600 1;
#X floatatom 430 307 5 0 0 0 - - -;
#N canvas 148 287 450 300 deltaMIDINote 1;
#X msg 193 196 100;
#X obj 49 55 inlet;
#X obj 158 218 makenote;
#X obj 157 122 sel 0 1 2 3 4 5 6 7;
#X msg 157 142 60;
#X obj 157 99 random 7;
#X floatatom 158 195 5 0 0 0 - - -;
#X msg 187 142 62;
#X msg 217 142 64;
#X msg 247 142 65;
#X msg 277 142 67;
#X msg 307 142 69;
#X msg 337 142 71;
#X msg 367 142 72;
#X obj 158 240 noteout;
#X obj 346 72 counter;
#X obj 346 94 % 2;
#X obj 345 118 moses 1;
#X obj 158 169 -;
#X msg 400 142 0;
#X msg 435 142 12;
#X obj 346 47 metro 20000;
#X msg 222 196 4000;
#X obj 49 82 moses 2;
#X obj 13 181 loadbang;
#X obj 320 13 loadbang;
#X msg 346 30 1;
#X obj 122 84 bng 15 250 50 0 empty empty empty 17 7 0 10 -262144 -1
-1;
#X connect 0 0 2 1;
#X connect 1 0 23 0;
#X connect 2 0 14 0;
#X connect 2 1 14 1;
#X connect 3 0 4 0;
#X connect 3 1 7 0;
#X connect 3 2 8 0;
#X connect 3 3 9 0;
#X connect 3 4 10 0;
#X connect 3 5 11 0;
#X connect 3 6 12 0;
#X connect 3 7 13 0;
#X connect 4 0 18 0;
#X connect 5 0 3 0;
#X connect 6 0 2 0;
#X connect 7 0 18 0;
#X connect 8 0 18 0;
#X connect 9 0 18 0;
#X connect 10 0 18 0;
#X connect 11 0 18 0;
#X connect 12 0 18 0;
#X connect 13 0 18 0;
#X connect 15 0 16 0;
#X connect 16 0 17 0;
#X connect 17 0 19 0;
#X connect 17 1 20 0;
#X connect 18 0 6 0;
#X connect 19 0 18 1;
#X connect 20 0 18 1;
#X connect 21 0 15 0;
#X connect 22 0 2 2;
#X connect 23 1 27 0;
#X connect 24 0 22 0;
#X connect 24 0 0 0;
#X connect 25 0 26 0;
#X connect 26 0 21 0;
#X connect 27 0 5 0;
#X restore 148 223 pd deltaMIDINote;
#X obj 336 108 bng 25 250 50 0 empty empty RESET 0 -5 0 10 -258113
-1 -1;
#X msg 392 147 200;
#X connect 0 0 7 0;
#X connect 1 0 9 0;
#X connect 2 0 11 0;
#X connect 3 0 13 0;
#X connect 4 0 15 0;
#X connect 5 0 6 0;
#X connect 6 0 0 0;
#X connect 6 1 1 0;
#X connect 6 2 2 0;
#X connect 6 3 3 0;
#X connect 6 4 4 0;
#X connect 6 6 21 0;
#X connect 7 0 8 0;
#X connect 8 0 17 0;
#X connect 9 0 10 0;
#X connect 10 0 18 0;
#X connect 11 0 12 0;
#X connect 12 0 36 0;
#X connect 13 0 14 0;
#X connect 14 0 19 0;
#X connect 15 0 16 0;
#X connect 16 0 20 0;
#X connect 22 0 23 0;
#X connect 24 0 25 0;
#X connect 26 0 27 0;
#X connect 28 0 29 0;
#X connect 30 0 31 0;
#X connect 32 0 22 0;
#X connect 32 0 24 0;
#X connect 32 0 26 0;
#X connect 32 0 28 0;
#X connect 32 0 30 0;
#X connect 32 0 38 0;
#X connect 33 0 32 0;
#X connect 34 0 35 0;
#X connect 37 0 7 3;
#X connect 37 0 9 3;
#X connect 37 0 11 3;
#X connect 37 0 13 3;
#X connect 37 0 15 3;
#X connect 38 0 34 0;
