#N canvas 286 213 465 377 10;
#X floatatom 59 25 5 0 0 0 - - -;
#X obj 59 44 moses 20;
#X obj 104 64 counter;
#X floatatom 104 85 5 0 0 0 - - -;
#X obj 104 105 moses 2;
#X floatatom 104 125 5 0 0 0 - - -;
#X obj 148 49 bng 15 250 50 0 empty empty empty 17 7 0 10 -262144 -1
-1;
#X obj 104 145 delay 500;
#X connect 0 0 1 0;
#X connect 1 1 2 0;
#X connect 2 0 3 0;
#X connect 3 0 4 0;
#X connect 4 0 5 0;
#X connect 5 0 7 0;
#X connect 6 0 2 3;
#X connect 7 0 6 0;
