#N canvas 717 228 450 300 10;
#X obj 171 66 r on;
#X obj 24 46 inlet;
#X obj 24 85 expr if($f2 == 1 \, $f1 \, 0);
#X obj 24 108 outlet;
#X obj 351 66 r on;
#X obj 204 46 inlet;
#X obj 204 85 expr if($f2 == 1 \, $f1 \, 0);
#X obj 204 108 outlet;
#X obj 361 156 r on;
#X obj 214 136 inlet;
#X obj 214 175 expr if($f2 == 1 \, $f1 \, 0);
#X obj 214 198 outlet;
#X obj 181 156 r on;
#X obj 34 136 inlet;
#X obj 34 175 expr if($f2 == 1 \, $f1 \, 0);
#X obj 34 198 outlet;
#X connect 0 0 2 1;
#X connect 1 0 2 0;
#X connect 2 0 3 0;
#X connect 4 0 6 1;
#X connect 5 0 6 0;
#X connect 6 0 7 0;
#X connect 8 0 10 1;
#X connect 9 0 10 0;
#X connect 10 0 11 0;
#X connect 12 0 14 1;
#X connect 13 0 14 0;
#X connect 14 0 15 0;
