#N canvas 351 259 571 547 10;
#X declare -lib mrpeach;
#X text 36 24 This library object maps selected datum from the Muse
headband software and puts 6 peices of data out in this order: Alpha
\, Beta \, Delta \, Gamma \, Theta \, blink. Please note that the MuseLab
software must be running with a connected headband and these data outputs
must be routed out via OSC on a [portA]. The inlet sets the listening
port \, [portB] if a port other than 5005 will be used. After routing
this data on [port] in MuseLab \, the following command must be run
in terminal: muse-player -l [portA] -s osc.udp://localhost:[portB]
;
#X obj 36 188 import mrpeach;
#X obj 36 213 inlet;
#X obj 36 257 udpreceive 5005;
#X msg 36 235 port \$1;
#X obj 36 280 unpackOSC;
#X obj 36 393 outlet;
#X obj 94 393 outlet;
#X obj 153 393 outlet;
#X obj 211 393 outlet;
#X obj 270 393 outlet;
#X obj 328 393 outlet;
#X obj 388 393 outlet;
#X obj 36 310 routeOSC /muse/elements/alpha_relative /muse/elements/beta_relative
/muse/elements/delta_relative /muse/elements/gamma_relative /muse/elements/theta_relative
/muse/elements/blink /muse/elements/horseshoe;
#X connect 2 0 4 0;
#X connect 3 0 5 0;
#X connect 4 0 3 0;
#X connect 5 0 13 0;
#X connect 13 0 6 0;
#X connect 13 1 7 0;
#X connect 13 2 8 0;
#X connect 13 3 9 0;
#X connect 13 4 10 0;
#X connect 13 5 11 0;
#X connect 13 6 12 0;
